<mxfile host="app.diagrams.net" modified="2024-07-15T04:20:19.623Z" agent="Mozilla/5.0 (Windows NT 10.0; Win64; x64) AppleWebKit/537.36 (KHTML, like Gecko) Chrome/126.0.0.0 Safari/537.36 Edg/126.0.0.0" etag="8_jawyVddrb9I5oNVNNH" version="24.6.5" type="onedrive">
  <diagram name="ページ1" id="BoUphv4RBisTH646IwVX">
    <mxGraphModel grid="1" page="0" gridSize="10" guides="1" tooltips="1" connect="1" arrows="1" fold="1" pageScale="1" pageWidth="827" pageHeight="1169" math="0" shadow="0">
      <root>
        <mxCell id="0" />
        <mxCell id="1" parent="0" />
        <mxCell id="9Wmfhl3CqmKMepXSVdRn-58" style="edgeStyle=none;curved=1;rounded=0;orthogonalLoop=1;jettySize=auto;html=1;exitX=0.5;exitY=1;exitDx=0;exitDy=0;fontSize=12;startSize=8;endSize=8;" edge="1" parent="1" source="9Wmfhl3CqmKMepXSVdRn-1" target="9Wmfhl3CqmKMepXSVdRn-2">
          <mxGeometry relative="1" as="geometry" />
        </mxCell>
        <mxCell id="9Wmfhl3CqmKMepXSVdRn-1" value="関数　twosearch(n:int)&lt;div&gt;開始&lt;/div&gt;" style="rounded=0;whiteSpace=wrap;html=1;" vertex="1" parent="1">
          <mxGeometry x="40" y="-80" width="120" height="60" as="geometry" />
        </mxCell>
        <mxCell id="9Wmfhl3CqmKMepXSVdRn-59" style="edgeStyle=none;curved=1;rounded=0;orthogonalLoop=1;jettySize=auto;html=1;exitX=0.5;exitY=1;exitDx=0;exitDy=0;fontSize=12;startSize=8;endSize=8;" edge="1" parent="1" source="9Wmfhl3CqmKMepXSVdRn-2" target="9Wmfhl3CqmKMepXSVdRn-3">
          <mxGeometry relative="1" as="geometry" />
        </mxCell>
        <mxCell id="9Wmfhl3CqmKMepXSVdRn-2" value="グローバル変数&lt;div&gt;tlist, Max, max_list, d&lt;br&gt;&lt;/div&gt;&lt;div&gt;定義&lt;/div&gt;" style="rounded=1;whiteSpace=wrap;html=1;" vertex="1" parent="1">
          <mxGeometry x="40" width="120" height="60" as="geometry" />
        </mxCell>
        <mxCell id="9Wmfhl3CqmKMepXSVdRn-60" style="edgeStyle=none;curved=1;rounded=0;orthogonalLoop=1;jettySize=auto;html=1;exitX=0.5;exitY=1;exitDx=0;exitDy=0;entryX=0.5;entryY=0;entryDx=0;entryDy=0;fontSize=12;startSize=8;endSize=8;" edge="1" parent="1" source="9Wmfhl3CqmKMepXSVdRn-3" target="9Wmfhl3CqmKMepXSVdRn-4">
          <mxGeometry relative="1" as="geometry" />
        </mxCell>
        <mxCell id="9Wmfhl3CqmKMepXSVdRn-3" value="Sum = 0&lt;div&gt;flag = 0&lt;br&gt;&lt;/div&gt;" style="rounded=1;whiteSpace=wrap;html=1;" vertex="1" parent="1">
          <mxGeometry x="40" y="80" width="120" height="60" as="geometry" />
        </mxCell>
        <mxCell id="9Wmfhl3CqmKMepXSVdRn-61" style="edgeStyle=none;curved=1;rounded=0;orthogonalLoop=1;jettySize=auto;html=1;exitX=0.5;exitY=1;exitDx=0;exitDy=0;fontSize=12;startSize=8;endSize=8;" edge="1" parent="1" source="9Wmfhl3CqmKMepXSVdRn-4" target="9Wmfhl3CqmKMepXSVdRn-5">
          <mxGeometry relative="1" as="geometry" />
        </mxCell>
        <mxCell id="9Wmfhl3CqmKMepXSVdRn-4" value="cList = tlist.head" style="rounded=1;whiteSpace=wrap;html=1;" vertex="1" parent="1">
          <mxGeometry x="40" y="160" width="120" height="60" as="geometry" />
        </mxCell>
        <mxCell id="9Wmfhl3CqmKMepXSVdRn-5" value="start = cList.num" style="rounded=1;whiteSpace=wrap;html=1;" vertex="1" parent="1">
          <mxGeometry x="40" y="240" width="120" height="60" as="geometry" />
        </mxCell>
        <mxCell id="9Wmfhl3CqmKMepXSVdRn-63" style="edgeStyle=none;curved=1;rounded=0;orthogonalLoop=1;jettySize=auto;html=1;exitX=0.5;exitY=1;exitDx=0;exitDy=0;fontSize=12;startSize=8;endSize=8;" edge="1" parent="1" source="9Wmfhl3CqmKMepXSVdRn-6" target="9Wmfhl3CqmKMepXSVdRn-7">
          <mxGeometry relative="1" as="geometry" />
        </mxCell>
        <mxCell id="9Wmfhl3CqmKMepXSVdRn-6" value="Sum = sum(d)を格納" style="rounded=1;whiteSpace=wrap;html=1;" vertex="1" parent="1">
          <mxGeometry x="40" y="320" width="120" height="60" as="geometry" />
        </mxCell>
        <mxCell id="9Wmfhl3CqmKMepXSVdRn-64" style="edgeStyle=none;curved=1;rounded=0;orthogonalLoop=1;jettySize=auto;html=1;exitX=0.5;exitY=1;exitDx=0;exitDy=0;entryX=0.5;entryY=0;entryDx=0;entryDy=0;fontSize=12;startSize=8;endSize=8;" edge="1" parent="1" source="9Wmfhl3CqmKMepXSVdRn-7" target="9Wmfhl3CqmKMepXSVdRn-9">
          <mxGeometry relative="1" as="geometry" />
        </mxCell>
        <mxCell id="9Wmfhl3CqmKMepXSVdRn-7" value="Max = min(d)-1&lt;div&gt;ng = (Sum//n) + 1&lt;br&gt;&lt;/div&gt;" style="rounded=1;whiteSpace=wrap;html=1;" vertex="1" parent="1">
          <mxGeometry x="40" y="400" width="120" height="60" as="geometry" />
        </mxCell>
        <mxCell id="9Wmfhl3CqmKMepXSVdRn-65" style="edgeStyle=none;curved=1;rounded=0;orthogonalLoop=1;jettySize=auto;html=1;exitX=0.5;exitY=1;exitDx=0;exitDy=0;entryX=0.5;entryY=0;entryDx=0;entryDy=0;fontSize=12;startSize=8;endSize=8;" edge="1" parent="1" source="9Wmfhl3CqmKMepXSVdRn-9" target="9Wmfhl3CqmKMepXSVdRn-10">
          <mxGeometry relative="1" as="geometry" />
        </mxCell>
        <mxCell id="9Wmfhl3CqmKMepXSVdRn-9" value="&lt;div&gt;predis = (Max+ng)//2&lt;/div&gt;&lt;div&gt;&amp;nbsp; &amp;nbsp; pointer = predis&lt;/div&gt;" style="rounded=1;whiteSpace=wrap;html=1;" vertex="1" parent="1">
          <mxGeometry x="40" y="480" width="120" height="60" as="geometry" />
        </mxCell>
        <mxCell id="9Wmfhl3CqmKMepXSVdRn-66" style="edgeStyle=none;curved=1;rounded=0;orthogonalLoop=1;jettySize=auto;html=1;exitX=0.5;exitY=1;exitDx=0;exitDy=0;entryX=0.5;entryY=0;entryDx=0;entryDy=0;fontSize=12;startSize=8;endSize=8;" edge="1" parent="1" source="9Wmfhl3CqmKMepXSVdRn-10" target="9Wmfhl3CqmKMepXSVdRn-11">
          <mxGeometry relative="1" as="geometry" />
        </mxCell>
        <mxCell id="9Wmfhl3CqmKMepXSVdRn-10" value="&lt;div&gt;success = 0&lt;/div&gt;&lt;div&gt;&amp;nbsp; &amp;nbsp; fail = 1&lt;/div&gt;&lt;div&gt;と初期値設定&lt;/div&gt;" style="rounded=1;whiteSpace=wrap;html=1;" vertex="1" parent="1">
          <mxGeometry x="40" y="560" width="120" height="60" as="geometry" />
        </mxCell>
        <mxCell id="9Wmfhl3CqmKMepXSVdRn-11" value="while True" style="rhombus;whiteSpace=wrap;html=1;" vertex="1" parent="1">
          <mxGeometry x="32.5" y="640" width="135" height="80" as="geometry" />
        </mxCell>
        <mxCell id="9Wmfhl3CqmKMepXSVdRn-72" style="edgeStyle=none;curved=1;rounded=0;orthogonalLoop=1;jettySize=auto;html=1;exitX=0.5;exitY=1;exitDx=0;exitDy=0;entryX=0.5;entryY=0;entryDx=0;entryDy=0;fontSize=12;startSize=8;endSize=8;" edge="1" parent="1" source="9Wmfhl3CqmKMepXSVdRn-12" target="9Wmfhl3CqmKMepXSVdRn-14">
          <mxGeometry relative="1" as="geometry" />
        </mxCell>
        <mxCell id="9Wmfhl3CqmKMepXSVdRn-12" value="if&amp;nbsp;&lt;div&gt;seccess = 1&lt;/div&gt;" style="rhombus;whiteSpace=wrap;html=1;" vertex="1" parent="1">
          <mxGeometry x="-102.5" y="700" width="135" height="80" as="geometry" />
        </mxCell>
        <mxCell id="9Wmfhl3CqmKMepXSVdRn-13" value="for i ←range(len(d))" style="rhombus;whiteSpace=wrap;html=1;" vertex="1" parent="1">
          <mxGeometry x="167.5" y="700" width="135" height="80" as="geometry" />
        </mxCell>
        <mxCell id="9Wmfhl3CqmKMepXSVdRn-14" value="break" style="rounded=1;whiteSpace=wrap;html=1;" vertex="1" parent="1">
          <mxGeometry x="-95" y="800" width="120" height="60" as="geometry" />
        </mxCell>
        <mxCell id="9Wmfhl3CqmKMepXSVdRn-79" style="edgeStyle=none;curved=1;rounded=0;orthogonalLoop=1;jettySize=auto;html=1;exitX=0.5;exitY=1;exitDx=0;exitDy=0;fontSize=12;startSize=8;endSize=8;" edge="1" parent="1" source="9Wmfhl3CqmKMepXSVdRn-16" target="9Wmfhl3CqmKMepXSVdRn-19">
          <mxGeometry relative="1" as="geometry" />
        </mxCell>
        <mxCell id="9Wmfhl3CqmKMepXSVdRn-16" value="if&amp;nbsp;&lt;div&gt;fail == 0&lt;br&gt;&lt;/div&gt;" style="rhombus;whiteSpace=wrap;html=1;" vertex="1" parent="1">
          <mxGeometry x="75" y="790" width="135" height="80" as="geometry" />
        </mxCell>
        <mxCell id="9Wmfhl3CqmKMepXSVdRn-17" style="edgeStyle=none;curved=1;rounded=0;orthogonalLoop=1;jettySize=auto;html=1;exitX=0;exitY=0;exitDx=0;exitDy=0;fontSize=12;startSize=8;endSize=8;" edge="1" parent="1" source="9Wmfhl3CqmKMepXSVdRn-16" target="9Wmfhl3CqmKMepXSVdRn-16">
          <mxGeometry relative="1" as="geometry" />
        </mxCell>
        <mxCell id="9Wmfhl3CqmKMepXSVdRn-18" value="cList = tlist.head" style="rounded=1;whiteSpace=wrap;html=1;" vertex="1" parent="1">
          <mxGeometry x="260" y="800" width="120" height="60" as="geometry" />
        </mxCell>
        <mxCell id="9Wmfhl3CqmKMepXSVdRn-19" value="break" style="rounded=1;whiteSpace=wrap;html=1;" vertex="1" parent="1">
          <mxGeometry x="82.5" y="890" width="120" height="60" as="geometry" />
        </mxCell>
        <mxCell id="9Wmfhl3CqmKMepXSVdRn-81" style="edgeStyle=none;curved=1;rounded=0;orthogonalLoop=1;jettySize=auto;html=1;exitX=0.5;exitY=1;exitDx=0;exitDy=0;fontSize=12;startSize=8;endSize=8;" edge="1" parent="1" source="9Wmfhl3CqmKMepXSVdRn-20" target="9Wmfhl3CqmKMepXSVdRn-21">
          <mxGeometry relative="1" as="geometry" />
        </mxCell>
        <mxCell id="9Wmfhl3CqmKMepXSVdRn-20" value="&lt;div&gt;fail = 0&lt;/div&gt;&lt;div&gt;&amp;nbsp;flag = 0&lt;/div&gt;&lt;div&gt;フラグのリセット&lt;/div&gt;" style="rounded=1;whiteSpace=wrap;html=1;" vertex="1" parent="1">
          <mxGeometry x="260" y="890" width="120" height="60" as="geometry" />
        </mxCell>
        <mxCell id="9Wmfhl3CqmKMepXSVdRn-21" value="&lt;div&gt;pre = []&lt;/div&gt;&lt;div&gt;dis = [0] * n&lt;/div&gt;&lt;div&gt;リストの作成&lt;/div&gt;" style="rounded=1;whiteSpace=wrap;html=1;" vertex="1" parent="1">
          <mxGeometry x="260" y="980" width="120" height="60" as="geometry" />
        </mxCell>
        <mxCell id="9Wmfhl3CqmKMepXSVdRn-84" style="edgeStyle=none;curved=1;rounded=0;orthogonalLoop=1;jettySize=auto;html=1;exitX=0.5;exitY=1;exitDx=0;exitDy=0;fontSize=12;startSize=8;endSize=8;" edge="1" parent="1" source="9Wmfhl3CqmKMepXSVdRn-22" target="9Wmfhl3CqmKMepXSVdRn-23">
          <mxGeometry relative="1" as="geometry" />
        </mxCell>
        <mxCell id="9Wmfhl3CqmKMepXSVdRn-22" value="if&amp;nbsp;&lt;div&gt;j ←range(0,i,1)&lt;br&gt;&lt;/div&gt;" style="rhombus;whiteSpace=wrap;html=1;" vertex="1" parent="1">
          <mxGeometry x="252.5" y="1070" width="135" height="80" as="geometry" />
        </mxCell>
        <mxCell id="9Wmfhl3CqmKMepXSVdRn-85" style="edgeStyle=none;curved=1;rounded=0;orthogonalLoop=1;jettySize=auto;html=1;exitX=0.5;exitY=1;exitDx=0;exitDy=0;fontSize=12;startSize=8;endSize=8;" edge="1" parent="1" source="9Wmfhl3CqmKMepXSVdRn-23" target="9Wmfhl3CqmKMepXSVdRn-24">
          <mxGeometry relative="1" as="geometry" />
        </mxCell>
        <UserObject label="cList = cList.next" link="cList = cList.next" id="9Wmfhl3CqmKMepXSVdRn-23">
          <mxCell style="rounded=1;whiteSpace=wrap;html=1;" vertex="1" parent="1">
            <mxGeometry x="260" y="1170" width="120" height="60" as="geometry" />
          </mxCell>
        </UserObject>
        <UserObject label="start = cList.num&lt;br&gt;pre.append(int(cList.num-0.5))" link="start = cList.num&#xa;            pre.append(int(cList.num-0.5))" id="9Wmfhl3CqmKMepXSVdRn-24">
          <mxCell style="rounded=1;whiteSpace=wrap;html=1;" vertex="1" parent="1">
            <mxGeometry x="260" y="1260" width="120" height="60" as="geometry" />
          </mxCell>
        </UserObject>
        <mxCell id="9Wmfhl3CqmKMepXSVdRn-26" value="for&amp;nbsp;&lt;div&gt;p ← range(len(dis))&lt;/div&gt;" style="rhombus;whiteSpace=wrap;html=1;" vertex="1" parent="1">
          <mxGeometry x="252.5" y="1350" width="135" height="80" as="geometry" />
        </mxCell>
        <mxCell id="9Wmfhl3CqmKMepXSVdRn-89" style="edgeStyle=none;curved=1;rounded=0;orthogonalLoop=1;jettySize=auto;html=1;exitX=0.5;exitY=1;exitDx=0;exitDy=0;fontSize=12;startSize=8;endSize=8;" edge="1" parent="1" source="9Wmfhl3CqmKMepXSVdRn-28" target="9Wmfhl3CqmKMepXSVdRn-30">
          <mxGeometry relative="1" as="geometry" />
        </mxCell>
        <mxCell id="9Wmfhl3CqmKMepXSVdRn-28" value="if&amp;nbsp;&lt;div&gt;fail == 1&lt;br&gt;&lt;/div&gt;" style="rhombus;whiteSpace=wrap;html=1;" vertex="1" parent="1">
          <mxGeometry x="351" y="1430" width="135" height="80" as="geometry" />
        </mxCell>
        <mxCell id="9Wmfhl3CqmKMepXSVdRn-29" style="edgeStyle=none;curved=1;rounded=0;orthogonalLoop=1;jettySize=auto;html=1;exitX=0;exitY=0;exitDx=0;exitDy=0;fontSize=12;startSize=8;endSize=8;" edge="1" parent="1" source="9Wmfhl3CqmKMepXSVdRn-28" target="9Wmfhl3CqmKMepXSVdRn-28">
          <mxGeometry relative="1" as="geometry" />
        </mxCell>
        <mxCell id="9Wmfhl3CqmKMepXSVdRn-30" value="break" style="rounded=1;whiteSpace=wrap;html=1;" vertex="1" parent="1">
          <mxGeometry x="358.5" y="1542" width="120" height="60" as="geometry" />
        </mxCell>
        <mxCell id="9Wmfhl3CqmKMepXSVdRn-31" value="while True" style="rhombus;whiteSpace=wrap;html=1;" vertex="1" parent="1">
          <mxGeometry x="167.5" y="1430" width="135" height="80" as="geometry" />
        </mxCell>
        <mxCell id="9Wmfhl3CqmKMepXSVdRn-32" style="edgeStyle=none;curved=1;rounded=0;orthogonalLoop=1;jettySize=auto;html=1;exitX=1;exitY=1;exitDx=0;exitDy=0;fontSize=12;startSize=8;endSize=8;" edge="1" parent="1" source="9Wmfhl3CqmKMepXSVdRn-28" target="9Wmfhl3CqmKMepXSVdRn-28">
          <mxGeometry relative="1" as="geometry" />
        </mxCell>
        <mxCell id="9Wmfhl3CqmKMepXSVdRn-99" style="edgeStyle=none;curved=1;rounded=0;orthogonalLoop=1;jettySize=auto;html=1;exitX=0.5;exitY=1;exitDx=0;exitDy=0;fontSize=12;startSize=8;endSize=8;" edge="1" parent="1" source="9Wmfhl3CqmKMepXSVdRn-33" target="9Wmfhl3CqmKMepXSVdRn-39">
          <mxGeometry relative="1" as="geometry" />
        </mxCell>
        <mxCell id="9Wmfhl3CqmKMepXSVdRn-33" value="if&lt;div&gt;cList.next.num == start&lt;br&gt;&lt;/div&gt;" style="rhombus;whiteSpace=wrap;html=1;" vertex="1" parent="1">
          <mxGeometry x="39" y="1520" width="135" height="80" as="geometry" />
        </mxCell>
        <mxCell id="9Wmfhl3CqmKMepXSVdRn-34" value="else" style="rhombus;whiteSpace=wrap;html=1;" vertex="1" parent="1">
          <mxGeometry x="-196" y="1522" width="135" height="80" as="geometry" />
        </mxCell>
        <mxCell id="9Wmfhl3CqmKMepXSVdRn-117" style="edgeStyle=none;curved=1;rounded=0;orthogonalLoop=1;jettySize=auto;html=1;exitX=0.5;exitY=1;exitDx=0;exitDy=0;entryX=0.5;entryY=0;entryDx=0;entryDy=0;fontSize=12;startSize=8;endSize=8;" edge="1" parent="1" source="9Wmfhl3CqmKMepXSVdRn-35" target="9Wmfhl3CqmKMepXSVdRn-44">
          <mxGeometry relative="1" as="geometry" />
        </mxCell>
        <mxCell id="9Wmfhl3CqmKMepXSVdRn-35" value="if&lt;div&gt;p == 0&lt;/div&gt;" style="rhombus;whiteSpace=wrap;html=1;" vertex="1" parent="1">
          <mxGeometry x="-581" y="1510" width="135" height="80" as="geometry" />
        </mxCell>
        <mxCell id="9Wmfhl3CqmKMepXSVdRn-98" style="edgeStyle=none;curved=1;rounded=0;orthogonalLoop=1;jettySize=auto;html=1;exitX=0.5;exitY=1;exitDx=0;exitDy=0;fontSize=12;startSize=8;endSize=8;" edge="1" parent="1" source="9Wmfhl3CqmKMepXSVdRn-36" target="9Wmfhl3CqmKMepXSVdRn-38">
          <mxGeometry relative="1" as="geometry" />
        </mxCell>
        <mxCell id="9Wmfhl3CqmKMepXSVdRn-36" value="if&lt;div&gt;flag == 1&lt;br&gt;&lt;/div&gt;" style="rhombus;whiteSpace=wrap;html=1;" vertex="1" parent="1">
          <mxGeometry x="205" y="1520" width="135" height="80" as="geometry" />
        </mxCell>
        <mxCell id="9Wmfhl3CqmKMepXSVdRn-38" value="break" style="rounded=1;whiteSpace=wrap;html=1;" vertex="1" parent="1">
          <mxGeometry x="212.5" y="1620" width="120" height="60" as="geometry" />
        </mxCell>
        <mxCell id="9Wmfhl3CqmKMepXSVdRn-100" style="edgeStyle=none;curved=1;rounded=0;orthogonalLoop=1;jettySize=auto;html=1;exitX=0.5;exitY=1;exitDx=0;exitDy=0;fontSize=12;startSize=8;endSize=8;" edge="1" parent="1" source="9Wmfhl3CqmKMepXSVdRn-39" target="9Wmfhl3CqmKMepXSVdRn-40">
          <mxGeometry relative="1" as="geometry" />
        </mxCell>
        <mxCell id="9Wmfhl3CqmKMepXSVdRn-39" value="flag = 1" style="rounded=1;whiteSpace=wrap;html=1;" vertex="1" parent="1">
          <mxGeometry x="46.5" y="1620" width="120" height="60" as="geometry" />
        </mxCell>
        <UserObject label="dis[p] += cList.dis" link="dis[p] += cList.dis" id="9Wmfhl3CqmKMepXSVdRn-40">
          <mxCell style="rounded=1;whiteSpace=wrap;html=1;" vertex="1" parent="1">
            <mxGeometry x="46.5" y="1700" width="120" height="60" as="geometry" />
          </mxCell>
        </UserObject>
        <mxCell id="9Wmfhl3CqmKMepXSVdRn-123" style="edgeStyle=none;curved=1;rounded=0;orthogonalLoop=1;jettySize=auto;html=1;exitX=0.5;exitY=1;exitDx=0;exitDy=0;fontSize=12;startSize=8;endSize=8;" edge="1" parent="1" source="9Wmfhl3CqmKMepXSVdRn-42" target="9Wmfhl3CqmKMepXSVdRn-45">
          <mxGeometry relative="1" as="geometry" />
        </mxCell>
        <mxCell id="9Wmfhl3CqmKMepXSVdRn-42" value="else" style="rhombus;whiteSpace=wrap;html=1;" vertex="1" parent="1">
          <mxGeometry x="-731" y="1610" width="135" height="80" as="geometry" />
        </mxCell>
        <mxCell id="9Wmfhl3CqmKMepXSVdRn-120" style="edgeStyle=none;curved=1;rounded=0;orthogonalLoop=1;jettySize=auto;html=1;exitX=0.5;exitY=1;exitDx=0;exitDy=0;fontSize=12;startSize=8;endSize=8;" edge="1" parent="1" source="9Wmfhl3CqmKMepXSVdRn-43" target="9Wmfhl3CqmKMepXSVdRn-49">
          <mxGeometry relative="1" as="geometry" />
        </mxCell>
        <mxCell id="9Wmfhl3CqmKMepXSVdRn-43" value="if&lt;div&gt;dis[p] == pointer&lt;br&gt;&lt;/div&gt;" style="rhombus;whiteSpace=wrap;html=1;" vertex="1" parent="1">
          <mxGeometry x="-431" y="1610" width="135" height="80" as="geometry" />
        </mxCell>
        <mxCell id="9Wmfhl3CqmKMepXSVdRn-118" style="edgeStyle=none;curved=1;rounded=0;orthogonalLoop=1;jettySize=auto;html=1;exitX=0.5;exitY=1;exitDx=0;exitDy=0;fontSize=12;startSize=8;endSize=8;" edge="1" parent="1" source="9Wmfhl3CqmKMepXSVdRn-44" target="9Wmfhl3CqmKMepXSVdRn-47">
          <mxGeometry relative="1" as="geometry" />
        </mxCell>
        <mxCell id="9Wmfhl3CqmKMepXSVdRn-44" value="elif&lt;div&gt;dis[p] &amp;gt; pointer&lt;br&gt;&lt;/div&gt;" style="rhombus;whiteSpace=wrap;html=1;" vertex="1" parent="1">
          <mxGeometry x="-581" y="1610" width="135" height="80" as="geometry" />
        </mxCell>
        <UserObject label="cList = cList.next" link="cList = cList.next" id="9Wmfhl3CqmKMepXSVdRn-45">
          <mxCell style="rounded=1;whiteSpace=wrap;html=1;" vertex="1" parent="1">
            <mxGeometry x="-723.5" y="1700" width="120" height="60" as="geometry" />
          </mxCell>
        </UserObject>
        <mxCell id="9Wmfhl3CqmKMepXSVdRn-46" value="break" style="rounded=1;whiteSpace=wrap;html=1;" vertex="1" parent="1">
          <mxGeometry x="-573.5" y="1780" width="120" height="60" as="geometry" />
        </mxCell>
        <mxCell id="9Wmfhl3CqmKMepXSVdRn-119" style="edgeStyle=none;curved=1;rounded=0;orthogonalLoop=1;jettySize=auto;html=1;exitX=0.5;exitY=1;exitDx=0;exitDy=0;fontSize=12;startSize=8;endSize=8;" edge="1" parent="1" source="9Wmfhl3CqmKMepXSVdRn-47" target="9Wmfhl3CqmKMepXSVdRn-46">
          <mxGeometry relative="1" as="geometry" />
        </mxCell>
        <mxCell id="9Wmfhl3CqmKMepXSVdRn-47" value="fail = 1" style="rounded=1;whiteSpace=wrap;html=1;" vertex="1" parent="1">
          <mxGeometry x="-573.5" y="1700" width="120" height="60" as="geometry" />
        </mxCell>
        <mxCell id="9Wmfhl3CqmKMepXSVdRn-48" value="break" style="rounded=1;whiteSpace=wrap;html=1;" vertex="1" parent="1">
          <mxGeometry x="-423.5" y="1860" width="120" height="60" as="geometry" />
        </mxCell>
        <mxCell id="9Wmfhl3CqmKMepXSVdRn-121" style="edgeStyle=none;curved=1;rounded=0;orthogonalLoop=1;jettySize=auto;html=1;exitX=0.5;exitY=1;exitDx=0;exitDy=0;fontSize=12;startSize=8;endSize=8;" edge="1" parent="1" source="9Wmfhl3CqmKMepXSVdRn-49" target="9Wmfhl3CqmKMepXSVdRn-50">
          <mxGeometry relative="1" as="geometry" />
        </mxCell>
        <UserObject label="pre.append&lt;div&gt;(int(cList.num+0.5))&lt;/div&gt;" link="pre.append(int(cList.num+0.5))" id="9Wmfhl3CqmKMepXSVdRn-49">
          <mxCell style="rounded=1;whiteSpace=wrap;html=1;" vertex="1" parent="1">
            <mxGeometry x="-423.5" y="1700" width="120" height="60" as="geometry" />
          </mxCell>
        </UserObject>
        <mxCell id="9Wmfhl3CqmKMepXSVdRn-122" style="edgeStyle=none;curved=1;rounded=0;orthogonalLoop=1;jettySize=auto;html=1;exitX=0.5;exitY=1;exitDx=0;exitDy=0;fontSize=12;startSize=8;endSize=8;" edge="1" parent="1" source="9Wmfhl3CqmKMepXSVdRn-50" target="9Wmfhl3CqmKMepXSVdRn-48">
          <mxGeometry relative="1" as="geometry" />
        </mxCell>
        <UserObject label="cList = cList.next" link="cList = cList.next" id="9Wmfhl3CqmKMepXSVdRn-50">
          <mxCell style="rounded=1;whiteSpace=wrap;html=1;" vertex="1" parent="1">
            <mxGeometry x="-423.5" y="1780" width="120" height="60" as="geometry" />
          </mxCell>
        </UserObject>
        <mxCell id="9Wmfhl3CqmKMepXSVdRn-107" style="edgeStyle=none;curved=1;rounded=0;orthogonalLoop=1;jettySize=auto;html=1;exitX=0.5;exitY=1;exitDx=0;exitDy=0;fontSize=12;startSize=8;endSize=8;" edge="1" parent="1" source="9Wmfhl3CqmKMepXSVdRn-52" target="9Wmfhl3CqmKMepXSVdRn-56">
          <mxGeometry relative="1" as="geometry" />
        </mxCell>
        <mxCell id="9Wmfhl3CqmKMepXSVdRn-52" value="if&lt;div&gt;dis[p] &amp;gt;= dis[0]&lt;br&gt;&lt;/div&gt;" style="rhombus;whiteSpace=wrap;html=1;" vertex="1" parent="1">
          <mxGeometry x="-116" y="1610" width="135" height="80" as="geometry" />
        </mxCell>
        <mxCell id="9Wmfhl3CqmKMepXSVdRn-106" style="edgeStyle=none;curved=1;rounded=0;orthogonalLoop=1;jettySize=auto;html=1;exitX=0.5;exitY=1;exitDx=0;exitDy=0;fontSize=12;startSize=8;endSize=8;" edge="1" parent="1" source="9Wmfhl3CqmKMepXSVdRn-53" target="9Wmfhl3CqmKMepXSVdRn-57">
          <mxGeometry relative="1" as="geometry" />
        </mxCell>
        <mxCell id="9Wmfhl3CqmKMepXSVdRn-53" value="else" style="rhombus;whiteSpace=wrap;html=1;" vertex="1" parent="1">
          <mxGeometry x="-266" y="1610" width="135" height="80" as="geometry" />
        </mxCell>
        <mxCell id="9Wmfhl3CqmKMepXSVdRn-54" value="break" style="rounded=1;whiteSpace=wrap;html=1;" vertex="1" parent="1">
          <mxGeometry x="-108.5" y="1860" width="120" height="60" as="geometry" />
        </mxCell>
        <mxCell id="9Wmfhl3CqmKMepXSVdRn-109" style="edgeStyle=none;curved=1;rounded=0;orthogonalLoop=1;jettySize=auto;html=1;exitX=0.5;exitY=1;exitDx=0;exitDy=0;fontSize=12;startSize=8;endSize=8;" edge="1" parent="1" source="9Wmfhl3CqmKMepXSVdRn-55" target="9Wmfhl3CqmKMepXSVdRn-54">
          <mxGeometry relative="1" as="geometry" />
        </mxCell>
        <UserObject label="cList = cList.next" link="cList = cList.next" id="9Wmfhl3CqmKMepXSVdRn-55">
          <mxCell style="rounded=1;whiteSpace=wrap;html=1;" vertex="1" parent="1">
            <mxGeometry x="-108.5" y="1780" width="120" height="60" as="geometry" />
          </mxCell>
        </UserObject>
        <mxCell id="9Wmfhl3CqmKMepXSVdRn-108" style="edgeStyle=none;curved=1;rounded=0;orthogonalLoop=1;jettySize=auto;html=1;exitX=0.5;exitY=1;exitDx=0;exitDy=0;fontSize=12;startSize=8;endSize=8;" edge="1" parent="1" source="9Wmfhl3CqmKMepXSVdRn-56" target="9Wmfhl3CqmKMepXSVdRn-55">
          <mxGeometry relative="1" as="geometry" />
        </mxCell>
        <UserObject label="pre.append&lt;div&gt;(int(cList.num+0.5))&lt;/div&gt;" link="pre.append(int(cList.num+0.5))" id="9Wmfhl3CqmKMepXSVdRn-56">
          <mxCell style="rounded=1;whiteSpace=wrap;html=1;" vertex="1" parent="1">
            <mxGeometry x="-108.5" y="1700" width="120" height="60" as="geometry" />
          </mxCell>
        </UserObject>
        <UserObject label="cList = cList.next" link="cList = cList.next" id="9Wmfhl3CqmKMepXSVdRn-57">
          <mxCell style="rounded=1;whiteSpace=wrap;html=1;" vertex="1" parent="1">
            <mxGeometry x="-258.5" y="1700" width="120" height="60" as="geometry" />
          </mxCell>
        </UserObject>
        <mxCell id="9Wmfhl3CqmKMepXSVdRn-62" style="edgeStyle=none;curved=1;rounded=0;orthogonalLoop=1;jettySize=auto;html=1;exitX=0.5;exitY=1;exitDx=0;exitDy=0;fontSize=12;startSize=8;endSize=8;" edge="1" parent="1" source="9Wmfhl3CqmKMepXSVdRn-5">
          <mxGeometry relative="1" as="geometry">
            <mxPoint x="100" y="320" as="targetPoint" />
          </mxGeometry>
        </mxCell>
        <mxCell id="9Wmfhl3CqmKMepXSVdRn-67" value="" style="endArrow=none;html=1;rounded=0;fontSize=12;startSize=8;endSize=8;curved=1;entryX=1;entryY=0.5;entryDx=0;entryDy=0;" edge="1" parent="1" target="9Wmfhl3CqmKMepXSVdRn-11">
          <mxGeometry width="50" height="50" relative="1" as="geometry">
            <mxPoint x="240" y="680" as="sourcePoint" />
            <mxPoint x="230" y="680" as="targetPoint" />
          </mxGeometry>
        </mxCell>
        <mxCell id="9Wmfhl3CqmKMepXSVdRn-68" value="" style="endArrow=none;html=1;rounded=0;fontSize=12;startSize=8;endSize=8;curved=1;" edge="1" parent="1">
          <mxGeometry width="50" height="50" relative="1" as="geometry">
            <mxPoint x="32.5" y="679.38" as="sourcePoint" />
            <mxPoint x="-40" y="679" as="targetPoint" />
          </mxGeometry>
        </mxCell>
        <mxCell id="9Wmfhl3CqmKMepXSVdRn-70" value="" style="endArrow=classic;html=1;rounded=0;fontSize=12;startSize=8;endSize=8;curved=1;entryX=0.5;entryY=0;entryDx=0;entryDy=0;" edge="1" parent="1" target="9Wmfhl3CqmKMepXSVdRn-12">
          <mxGeometry width="50" height="50" relative="1" as="geometry">
            <mxPoint x="-35" y="680" as="sourcePoint" />
            <mxPoint x="-30" y="660" as="targetPoint" />
          </mxGeometry>
        </mxCell>
        <mxCell id="9Wmfhl3CqmKMepXSVdRn-71" value="" style="endArrow=classic;html=1;rounded=0;fontSize=12;startSize=8;endSize=8;curved=1;entryX=0.5;entryY=0;entryDx=0;entryDy=0;" edge="1" parent="1" target="9Wmfhl3CqmKMepXSVdRn-13">
          <mxGeometry width="50" height="50" relative="1" as="geometry">
            <mxPoint x="240" y="680" as="sourcePoint" />
            <mxPoint x="280" y="680" as="targetPoint" />
          </mxGeometry>
        </mxCell>
        <mxCell id="9Wmfhl3CqmKMepXSVdRn-73" value="" style="endArrow=none;html=1;rounded=0;fontSize=12;startSize=8;endSize=8;curved=1;" edge="1" parent="1" target="9Wmfhl3CqmKMepXSVdRn-13">
          <mxGeometry width="50" height="50" relative="1" as="geometry">
            <mxPoint x="140" y="740" as="sourcePoint" />
            <mxPoint x="210" y="1020" as="targetPoint" />
          </mxGeometry>
        </mxCell>
        <mxCell id="9Wmfhl3CqmKMepXSVdRn-76" value="" style="endArrow=classic;html=1;rounded=0;fontSize=12;startSize=8;endSize=8;curved=1;entryX=0.5;entryY=0;entryDx=0;entryDy=0;" edge="1" parent="1" target="9Wmfhl3CqmKMepXSVdRn-16">
          <mxGeometry width="50" height="50" relative="1" as="geometry">
            <mxPoint x="143" y="740" as="sourcePoint" />
            <mxPoint x="270" y="970" as="targetPoint" />
          </mxGeometry>
        </mxCell>
        <mxCell id="9Wmfhl3CqmKMepXSVdRn-77" value="" style="endArrow=none;html=1;rounded=0;fontSize=12;startSize=8;endSize=8;curved=1;entryX=1;entryY=0.5;entryDx=0;entryDy=0;" edge="1" parent="1" target="9Wmfhl3CqmKMepXSVdRn-13">
          <mxGeometry width="50" height="50" relative="1" as="geometry">
            <mxPoint x="320" y="740" as="sourcePoint" />
            <mxPoint x="270" y="970" as="targetPoint" />
          </mxGeometry>
        </mxCell>
        <mxCell id="9Wmfhl3CqmKMepXSVdRn-78" value="" style="endArrow=classic;html=1;rounded=0;fontSize=12;startSize=8;endSize=8;curved=1;entryX=0.5;entryY=0;entryDx=0;entryDy=0;" edge="1" parent="1" target="9Wmfhl3CqmKMepXSVdRn-18">
          <mxGeometry width="50" height="50" relative="1" as="geometry">
            <mxPoint x="320" y="740" as="sourcePoint" />
            <mxPoint x="270" y="970" as="targetPoint" />
          </mxGeometry>
        </mxCell>
        <mxCell id="9Wmfhl3CqmKMepXSVdRn-80" style="edgeStyle=none;curved=1;rounded=0;orthogonalLoop=1;jettySize=auto;html=1;exitX=0.5;exitY=1;exitDx=0;exitDy=0;fontSize=12;startSize=8;endSize=8;" edge="1" parent="1" source="9Wmfhl3CqmKMepXSVdRn-18">
          <mxGeometry relative="1" as="geometry">
            <mxPoint x="320" y="890" as="targetPoint" />
          </mxGeometry>
        </mxCell>
        <mxCell id="9Wmfhl3CqmKMepXSVdRn-82" style="edgeStyle=none;curved=1;rounded=0;orthogonalLoop=1;jettySize=auto;html=1;entryX=0.5;entryY=0;entryDx=0;entryDy=0;fontSize=12;startSize=8;endSize=8;" edge="1" parent="1" source="9Wmfhl3CqmKMepXSVdRn-22" target="9Wmfhl3CqmKMepXSVdRn-22">
          <mxGeometry relative="1" as="geometry" />
        </mxCell>
        <mxCell id="9Wmfhl3CqmKMepXSVdRn-87" value="" style="endArrow=none;html=1;rounded=0;fontSize=12;startSize=8;endSize=8;curved=1;entryX=1;entryY=0.5;entryDx=0;entryDy=0;" edge="1" parent="1" target="9Wmfhl3CqmKMepXSVdRn-26">
          <mxGeometry width="50" height="50" relative="1" as="geometry">
            <mxPoint x="420" y="1390" as="sourcePoint" />
            <mxPoint x="380" y="1560" as="targetPoint" />
          </mxGeometry>
        </mxCell>
        <mxCell id="9Wmfhl3CqmKMepXSVdRn-88" value="" style="endArrow=classic;html=1;rounded=0;fontSize=12;startSize=8;endSize=8;curved=1;entryX=0.5;entryY=0;entryDx=0;entryDy=0;" edge="1" parent="1" target="9Wmfhl3CqmKMepXSVdRn-28">
          <mxGeometry width="50" height="50" relative="1" as="geometry">
            <mxPoint x="420" y="1390" as="sourcePoint" />
            <mxPoint x="380" y="1560" as="targetPoint" />
          </mxGeometry>
        </mxCell>
        <mxCell id="9Wmfhl3CqmKMepXSVdRn-90" value="" style="endArrow=none;html=1;rounded=0;fontSize=12;startSize=8;endSize=8;curved=1;entryX=0;entryY=0.5;entryDx=0;entryDy=0;" edge="1" parent="1" target="9Wmfhl3CqmKMepXSVdRn-26">
          <mxGeometry width="50" height="50" relative="1" as="geometry">
            <mxPoint x="230" y="1390" as="sourcePoint" />
            <mxPoint x="380" y="1560" as="targetPoint" />
          </mxGeometry>
        </mxCell>
        <mxCell id="9Wmfhl3CqmKMepXSVdRn-91" value="" style="endArrow=classic;html=1;rounded=0;fontSize=12;startSize=8;endSize=8;curved=1;entryX=0.5;entryY=0;entryDx=0;entryDy=0;" edge="1" parent="1" target="9Wmfhl3CqmKMepXSVdRn-31">
          <mxGeometry width="50" height="50" relative="1" as="geometry">
            <mxPoint x="235" y="1390" as="sourcePoint" />
            <mxPoint x="380" y="1560" as="targetPoint" />
          </mxGeometry>
        </mxCell>
        <mxCell id="9Wmfhl3CqmKMepXSVdRn-92" value="" style="endArrow=none;html=1;rounded=0;fontSize=12;startSize=8;endSize=8;curved=1;entryX=0;entryY=0.5;entryDx=0;entryDy=0;" edge="1" parent="1" target="9Wmfhl3CqmKMepXSVdRn-31">
          <mxGeometry width="50" height="50" relative="1" as="geometry">
            <mxPoint x="-510" y="1470" as="sourcePoint" />
            <mxPoint x="180" y="1600" as="targetPoint" />
          </mxGeometry>
        </mxCell>
        <mxCell id="9Wmfhl3CqmKMepXSVdRn-93" value="" style="endArrow=classic;html=1;rounded=0;fontSize=12;startSize=8;endSize=8;curved=1;entryX=0.5;entryY=0;entryDx=0;entryDy=0;" edge="1" parent="1" target="9Wmfhl3CqmKMepXSVdRn-33">
          <mxGeometry width="50" height="50" relative="1" as="geometry">
            <mxPoint x="107" y="1470" as="sourcePoint" />
            <mxPoint x="180" y="1600" as="targetPoint" />
          </mxGeometry>
        </mxCell>
        <mxCell id="9Wmfhl3CqmKMepXSVdRn-94" value="" style="endArrow=none;html=1;rounded=0;fontSize=12;startSize=8;endSize=8;curved=1;" edge="1" parent="1">
          <mxGeometry width="50" height="50" relative="1" as="geometry">
            <mxPoint x="110" y="1510" as="sourcePoint" />
            <mxPoint x="110" y="1510" as="targetPoint" />
          </mxGeometry>
        </mxCell>
        <mxCell id="9Wmfhl3CqmKMepXSVdRn-95" value="" style="endArrow=classic;html=1;rounded=0;fontSize=12;startSize=8;endSize=8;curved=1;entryX=0.5;entryY=0;entryDx=0;entryDy=0;" edge="1" parent="1" target="9Wmfhl3CqmKMepXSVdRn-36">
          <mxGeometry width="50" height="50" relative="1" as="geometry">
            <mxPoint x="107" y="1510" as="sourcePoint" />
            <mxPoint x="180" y="1600" as="targetPoint" />
          </mxGeometry>
        </mxCell>
        <mxCell id="9Wmfhl3CqmKMepXSVdRn-96" value="" style="endArrow=classic;html=1;rounded=0;fontSize=12;startSize=8;endSize=8;curved=1;entryX=0.5;entryY=0;entryDx=0;entryDy=0;" edge="1" parent="1">
          <mxGeometry width="50" height="50" relative="1" as="geometry">
            <mxPoint x="-512" y="1470" as="sourcePoint" />
            <mxPoint x="-512.5" y="1510" as="targetPoint" />
          </mxGeometry>
        </mxCell>
        <mxCell id="9Wmfhl3CqmKMepXSVdRn-97" value="" style="endArrow=classic;html=1;rounded=0;fontSize=12;startSize=8;endSize=8;curved=1;entryX=0.5;entryY=0;entryDx=0;entryDy=0;" edge="1" parent="1" target="9Wmfhl3CqmKMepXSVdRn-34">
          <mxGeometry width="50" height="50" relative="1" as="geometry">
            <mxPoint x="-130" y="1470" as="sourcePoint" />
            <mxPoint x="-100" y="1500" as="targetPoint" />
          </mxGeometry>
        </mxCell>
        <mxCell id="9Wmfhl3CqmKMepXSVdRn-101" value="" style="endArrow=none;html=1;rounded=0;fontSize=12;startSize=8;endSize=8;curved=1;entryX=1;entryY=0.5;entryDx=0;entryDy=0;" edge="1" parent="1" target="9Wmfhl3CqmKMepXSVdRn-34">
          <mxGeometry width="50" height="50" relative="1" as="geometry">
            <mxPoint x="-50" y="1562" as="sourcePoint" />
            <mxPoint x="-30" y="1740" as="targetPoint" />
          </mxGeometry>
        </mxCell>
        <mxCell id="9Wmfhl3CqmKMepXSVdRn-102" value="" style="endArrow=classic;html=1;rounded=0;fontSize=12;startSize=8;endSize=8;curved=1;entryX=0.5;entryY=0;entryDx=0;entryDy=0;" edge="1" parent="1" target="9Wmfhl3CqmKMepXSVdRn-52">
          <mxGeometry width="50" height="50" relative="1" as="geometry">
            <mxPoint x="-48" y="1560" as="sourcePoint" />
            <mxPoint x="-30" y="1740" as="targetPoint" />
          </mxGeometry>
        </mxCell>
        <mxCell id="9Wmfhl3CqmKMepXSVdRn-104" value="" style="endArrow=none;html=1;rounded=0;fontSize=12;startSize=8;endSize=8;curved=1;entryX=1;entryY=0.5;entryDx=0;entryDy=0;" edge="1" parent="1">
          <mxGeometry width="50" height="50" relative="1" as="geometry">
            <mxPoint x="-189" y="1562" as="sourcePoint" />
            <mxPoint x="-200" y="1562" as="targetPoint" />
          </mxGeometry>
        </mxCell>
        <mxCell id="9Wmfhl3CqmKMepXSVdRn-105" value="" style="endArrow=classic;html=1;rounded=0;fontSize=12;startSize=8;endSize=8;curved=1;entryX=0.5;entryY=0;entryDx=0;entryDy=0;" edge="1" parent="1">
          <mxGeometry width="50" height="50" relative="1" as="geometry">
            <mxPoint x="-200" y="1560" as="sourcePoint" />
            <mxPoint x="-200" y="1610" as="targetPoint" />
          </mxGeometry>
        </mxCell>
        <mxCell id="9Wmfhl3CqmKMepXSVdRn-110" value="" style="endArrow=none;html=1;rounded=0;fontSize=12;startSize=8;endSize=8;curved=1;entryX=0.988;entryY=0.667;entryDx=0;entryDy=0;entryPerimeter=0;" edge="1" parent="1" target="9Wmfhl3CqmKMepXSVdRn-55">
          <mxGeometry width="50" height="50" relative="1" as="geometry">
            <mxPoint x="30" y="1820" as="sourcePoint" />
            <mxPoint x="-20" y="1880" as="targetPoint" />
          </mxGeometry>
        </mxCell>
        <mxCell id="9Wmfhl3CqmKMepXSVdRn-111" value="" style="endArrow=none;html=1;rounded=0;fontSize=12;startSize=8;endSize=8;curved=1;" edge="1" parent="1">
          <mxGeometry width="50" height="50" relative="1" as="geometry">
            <mxPoint x="30" y="1650" as="sourcePoint" />
            <mxPoint x="30" y="1820" as="targetPoint" />
          </mxGeometry>
        </mxCell>
        <mxCell id="9Wmfhl3CqmKMepXSVdRn-112" value="" style="endArrow=classic;html=1;rounded=0;fontSize=12;startSize=8;endSize=8;curved=1;" edge="1" parent="1">
          <mxGeometry width="50" height="50" relative="1" as="geometry">
            <mxPoint x="30" y="1650" as="sourcePoint" />
            <mxPoint x="20" y="1650" as="targetPoint" />
          </mxGeometry>
        </mxCell>
        <mxCell id="9Wmfhl3CqmKMepXSVdRn-113" value="" style="endArrow=none;html=1;rounded=0;fontSize=12;startSize=8;endSize=8;curved=1;entryX=1;entryY=0.5;entryDx=0;entryDy=0;" edge="1" parent="1" target="9Wmfhl3CqmKMepXSVdRn-35">
          <mxGeometry width="50" height="50" relative="1" as="geometry">
            <mxPoint x="-360" y="1550" as="sourcePoint" />
            <mxPoint x="-380" y="1900" as="targetPoint" />
          </mxGeometry>
        </mxCell>
        <mxCell id="9Wmfhl3CqmKMepXSVdRn-114" value="" style="endArrow=none;html=1;rounded=0;fontSize=12;startSize=8;endSize=8;curved=1;entryX=0;entryY=0.5;entryDx=0;entryDy=0;" edge="1" parent="1" target="9Wmfhl3CqmKMepXSVdRn-35">
          <mxGeometry width="50" height="50" relative="1" as="geometry">
            <mxPoint x="-670" y="1550" as="sourcePoint" />
            <mxPoint x="-380" y="1900" as="targetPoint" />
          </mxGeometry>
        </mxCell>
        <mxCell id="9Wmfhl3CqmKMepXSVdRn-115" value="" style="endArrow=classic;html=1;rounded=0;fontSize=12;startSize=8;endSize=8;curved=1;entryX=0.5;entryY=0;entryDx=0;entryDy=0;" edge="1" parent="1" target="9Wmfhl3CqmKMepXSVdRn-43">
          <mxGeometry width="50" height="50" relative="1" as="geometry">
            <mxPoint x="-360" y="1550" as="sourcePoint" />
            <mxPoint x="-360" y="1630" as="targetPoint" />
          </mxGeometry>
        </mxCell>
        <mxCell id="9Wmfhl3CqmKMepXSVdRn-116" value="" style="endArrow=classic;html=1;rounded=0;fontSize=12;startSize=8;endSize=8;curved=1;entryX=0.521;entryY=0.098;entryDx=0;entryDy=0;entryPerimeter=0;" edge="1" parent="1" target="9Wmfhl3CqmKMepXSVdRn-42">
          <mxGeometry width="50" height="50" relative="1" as="geometry">
            <mxPoint x="-663" y="1550" as="sourcePoint" />
            <mxPoint x="-670" y="1790" as="targetPoint" />
          </mxGeometry>
        </mxCell>
        <mxCell id="9Wmfhl3CqmKMepXSVdRn-124" value="pre.pop()" style="rounded=1;whiteSpace=wrap;html=1;" vertex="1" parent="1">
          <mxGeometry x="40" y="2001.5" width="120" height="60" as="geometry" />
        </mxCell>
        <mxCell id="9Wmfhl3CqmKMepXSVdRn-152" style="edgeStyle=none;curved=1;rounded=0;orthogonalLoop=1;jettySize=auto;html=1;exitX=0.5;exitY=1;exitDx=0;exitDy=0;entryX=0.5;entryY=0;entryDx=0;entryDy=0;fontSize=12;startSize=8;endSize=8;" edge="1" parent="1" source="9Wmfhl3CqmKMepXSVdRn-125" target="9Wmfhl3CqmKMepXSVdRn-136">
          <mxGeometry relative="1" as="geometry" />
        </mxCell>
        <mxCell id="9Wmfhl3CqmKMepXSVdRn-125" value="if&lt;div&gt;min(dis) == pointer and len(pre) == n&lt;br&gt;&lt;/div&gt;" style="rhombus;whiteSpace=wrap;html=1;" vertex="1" parent="1">
          <mxGeometry x="174" y="2061.5" width="135" height="80" as="geometry" />
        </mxCell>
        <mxCell id="9Wmfhl3CqmKMepXSVdRn-126" value="else" style="rhombus;whiteSpace=wrap;html=1;" vertex="1" parent="1">
          <mxGeometry x="-131" y="2061.5" width="135" height="80" as="geometry" />
        </mxCell>
        <mxCell id="9Wmfhl3CqmKMepXSVdRn-158" style="edgeStyle=none;curved=1;rounded=0;orthogonalLoop=1;jettySize=auto;html=1;exitX=0.5;exitY=1;exitDx=0;exitDy=0;entryX=0.5;entryY=0;entryDx=0;entryDy=0;fontSize=12;startSize=8;endSize=8;" edge="1" parent="1" source="9Wmfhl3CqmKMepXSVdRn-127" target="9Wmfhl3CqmKMepXSVdRn-130">
          <mxGeometry relative="1" as="geometry" />
        </mxCell>
        <mxCell id="9Wmfhl3CqmKMepXSVdRn-127" value="if&lt;div&gt;pointer+1 == ng&lt;br&gt;&lt;/div&gt;" style="rhombus;whiteSpace=wrap;html=1;" vertex="1" parent="1">
          <mxGeometry x="19" y="2159" width="135" height="80" as="geometry" />
        </mxCell>
        <mxCell id="9Wmfhl3CqmKMepXSVdRn-159" style="edgeStyle=none;curved=1;rounded=0;orthogonalLoop=1;jettySize=auto;html=1;exitX=0.5;exitY=1;exitDx=0;exitDy=0;entryX=0.5;entryY=0;entryDx=0;entryDy=0;fontSize=12;startSize=8;endSize=8;" edge="1" parent="1" source="9Wmfhl3CqmKMepXSVdRn-128" target="9Wmfhl3CqmKMepXSVdRn-131">
          <mxGeometry relative="1" as="geometry" />
        </mxCell>
        <mxCell id="9Wmfhl3CqmKMepXSVdRn-128" value="elif&lt;div&gt;pointer+1 == predis&amp;nbsp;&lt;/div&gt;" style="rhombus;whiteSpace=wrap;html=1;" vertex="1" parent="1">
          <mxGeometry x="-131" y="2159" width="135" height="80" as="geometry" />
        </mxCell>
        <mxCell id="9Wmfhl3CqmKMepXSVdRn-160" style="edgeStyle=none;curved=1;rounded=0;orthogonalLoop=1;jettySize=auto;html=1;exitX=0.5;exitY=1;exitDx=0;exitDy=0;entryX=0.5;entryY=0;entryDx=0;entryDy=0;fontSize=12;startSize=8;endSize=8;" edge="1" parent="1" source="9Wmfhl3CqmKMepXSVdRn-129" target="9Wmfhl3CqmKMepXSVdRn-132">
          <mxGeometry relative="1" as="geometry" />
        </mxCell>
        <mxCell id="9Wmfhl3CqmKMepXSVdRn-129" value="else" style="rhombus;whiteSpace=wrap;html=1;" vertex="1" parent="1">
          <mxGeometry x="-280" y="2159" width="135" height="80" as="geometry" />
        </mxCell>
        <mxCell id="9Wmfhl3CqmKMepXSVdRn-130" value="&lt;div&gt;pointer = Max+1&lt;/div&gt;&lt;div&gt;&lt;span style=&quot;background-color: initial;&quot;&gt;fail = 1&lt;/span&gt;&lt;/div&gt;" style="rounded=1;whiteSpace=wrap;html=1;" vertex="1" parent="1">
          <mxGeometry x="26.5" y="2259" width="120" height="60" as="geometry" />
        </mxCell>
        <mxCell id="9Wmfhl3CqmKMepXSVdRn-131" value="success = 1" style="rounded=1;whiteSpace=wrap;html=1;" vertex="1" parent="1">
          <mxGeometry x="-123.5" y="2259" width="120" height="60" as="geometry" />
        </mxCell>
        <mxCell id="9Wmfhl3CqmKMepXSVdRn-132" value="pointer += 1&lt;br&gt;&amp;nbsp; fail = 1" style="rounded=1;whiteSpace=wrap;html=1;" vertex="1" parent="1">
          <mxGeometry x="-272.5" y="2259" width="120" height="60" as="geometry" />
        </mxCell>
        <mxCell id="9Wmfhl3CqmKMepXSVdRn-134" value="fail = 1" style="rounded=1;whiteSpace=wrap;html=1;" vertex="1" parent="1">
          <mxGeometry x="181.5" y="2350" width="120" height="60" as="geometry" />
        </mxCell>
        <mxCell id="9Wmfhl3CqmKMepXSVdRn-154" style="edgeStyle=none;curved=1;rounded=0;orthogonalLoop=1;jettySize=auto;html=1;exitX=0.5;exitY=1;exitDx=0;exitDy=0;fontSize=12;startSize=8;endSize=8;" edge="1" parent="1" source="9Wmfhl3CqmKMepXSVdRn-135" target="9Wmfhl3CqmKMepXSVdRn-134">
          <mxGeometry relative="1" as="geometry" />
        </mxCell>
        <mxCell id="9Wmfhl3CqmKMepXSVdRn-135" value="&lt;div&gt;predis = (Max+ng)//2&lt;/div&gt;&lt;div&gt;&amp;nbsp; &amp;nbsp; &amp;nbsp; &amp;nbsp; &amp;nbsp; &amp;nbsp; pointer = predis&lt;/div&gt;" style="rounded=1;whiteSpace=wrap;html=1;" vertex="1" parent="1">
          <mxGeometry x="181.5" y="2259" width="120" height="60" as="geometry" />
        </mxCell>
        <mxCell id="9Wmfhl3CqmKMepXSVdRn-153" style="edgeStyle=none;curved=1;rounded=0;orthogonalLoop=1;jettySize=auto;html=1;exitX=0.5;exitY=1;exitDx=0;exitDy=0;entryX=0.5;entryY=0;entryDx=0;entryDy=0;fontSize=12;startSize=8;endSize=8;" edge="1" parent="1" source="9Wmfhl3CqmKMepXSVdRn-136" target="9Wmfhl3CqmKMepXSVdRn-135">
          <mxGeometry relative="1" as="geometry" />
        </mxCell>
        <mxCell id="9Wmfhl3CqmKMepXSVdRn-136" value="&lt;div&gt;Max = pointer&lt;/div&gt;&lt;div&gt;&amp;nbsp; &amp;nbsp; &amp;nbsp; &amp;nbsp; &amp;nbsp; &amp;nbsp; max_list = copy.copy(pre)&lt;/div&gt;" style="rounded=1;whiteSpace=wrap;html=1;" vertex="1" parent="1">
          <mxGeometry x="181.5" y="2169" width="120" height="60" as="geometry" />
        </mxCell>
        <mxCell id="9Wmfhl3CqmKMepXSVdRn-137" value="" style="endArrow=none;html=1;rounded=0;fontSize=12;startSize=8;endSize=8;curved=1;entryX=0.5;entryY=1;entryDx=0;entryDy=0;" edge="1" parent="1" target="9Wmfhl3CqmKMepXSVdRn-46">
          <mxGeometry width="50" height="50" relative="1" as="geometry">
            <mxPoint x="-513" y="1970" as="sourcePoint" />
            <mxPoint x="-200" y="2040" as="targetPoint" />
          </mxGeometry>
        </mxCell>
        <mxCell id="9Wmfhl3CqmKMepXSVdRn-138" value="" style="endArrow=none;html=1;rounded=0;fontSize=12;startSize=8;endSize=8;curved=1;" edge="1" parent="1">
          <mxGeometry width="50" height="50" relative="1" as="geometry">
            <mxPoint x="-520" y="1970" as="sourcePoint" />
            <mxPoint x="430" y="1970" as="targetPoint" />
          </mxGeometry>
        </mxCell>
        <mxCell id="9Wmfhl3CqmKMepXSVdRn-139" value="" style="endArrow=none;html=1;rounded=0;fontSize=12;startSize=8;endSize=8;curved=1;entryX=0.5;entryY=1;entryDx=0;entryDy=0;" edge="1" parent="1" target="9Wmfhl3CqmKMepXSVdRn-30">
          <mxGeometry width="50" height="50" relative="1" as="geometry">
            <mxPoint x="420" y="1970" as="sourcePoint" />
            <mxPoint x="410" y="1900" as="targetPoint" />
          </mxGeometry>
        </mxCell>
        <mxCell id="9Wmfhl3CqmKMepXSVdRn-140" value="終了" style="rounded=0;whiteSpace=wrap;html=1;" vertex="1" parent="1">
          <mxGeometry x="46.5" y="2440" width="120" height="60" as="geometry" />
        </mxCell>
        <mxCell id="9Wmfhl3CqmKMepXSVdRn-142" value="" style="endArrow=none;html=1;rounded=0;fontSize=12;startSize=8;endSize=8;curved=1;entryX=0.5;entryY=1;entryDx=0;entryDy=0;" edge="1" parent="1" target="9Wmfhl3CqmKMepXSVdRn-48">
          <mxGeometry width="50" height="50" relative="1" as="geometry">
            <mxPoint x="-363" y="1970" as="sourcePoint" />
            <mxPoint x="-130" y="2270" as="targetPoint" />
          </mxGeometry>
        </mxCell>
        <mxCell id="9Wmfhl3CqmKMepXSVdRn-143" value="" style="endArrow=none;html=1;rounded=0;fontSize=12;startSize=8;endSize=8;curved=1;entryX=0.5;entryY=1;entryDx=0;entryDy=0;" edge="1" parent="1" target="9Wmfhl3CqmKMepXSVdRn-54">
          <mxGeometry width="50" height="50" relative="1" as="geometry">
            <mxPoint x="-48" y="1970" as="sourcePoint" />
            <mxPoint x="130" y="2060" as="targetPoint" />
          </mxGeometry>
        </mxCell>
        <mxCell id="9Wmfhl3CqmKMepXSVdRn-144" value="" style="endArrow=none;html=1;rounded=0;fontSize=12;startSize=8;endSize=8;curved=1;entryX=0.5;entryY=1;entryDx=0;entryDy=0;" edge="1" parent="1" target="9Wmfhl3CqmKMepXSVdRn-38">
          <mxGeometry width="50" height="50" relative="1" as="geometry">
            <mxPoint x="273" y="1970" as="sourcePoint" />
            <mxPoint x="370" y="1880" as="targetPoint" />
          </mxGeometry>
        </mxCell>
        <mxCell id="9Wmfhl3CqmKMepXSVdRn-145" value="" style="endArrow=none;html=1;rounded=0;fontSize=12;startSize=8;endSize=8;curved=1;exitX=0.5;exitY=0;exitDx=0;exitDy=0;" edge="1" parent="1" source="9Wmfhl3CqmKMepXSVdRn-124">
          <mxGeometry width="50" height="50" relative="1" as="geometry">
            <mxPoint x="210" y="2090" as="sourcePoint" />
            <mxPoint x="100" y="1970" as="targetPoint" />
          </mxGeometry>
        </mxCell>
        <mxCell id="9Wmfhl3CqmKMepXSVdRn-146" value="" style="endArrow=none;html=1;rounded=0;fontSize=12;startSize=8;endSize=8;curved=1;entryX=0;entryY=0.5;entryDx=0;entryDy=0;" edge="1" parent="1" target="9Wmfhl3CqmKMepXSVdRn-124">
          <mxGeometry width="50" height="50" relative="1" as="geometry">
            <mxPoint x="-60" y="2030" as="sourcePoint" />
            <mxPoint x="120" y="2240" as="targetPoint" />
          </mxGeometry>
        </mxCell>
        <mxCell id="9Wmfhl3CqmKMepXSVdRn-147" value="" style="endArrow=none;html=1;rounded=0;fontSize=12;startSize=8;endSize=8;curved=1;entryX=1;entryY=0.5;entryDx=0;entryDy=0;" edge="1" parent="1" target="9Wmfhl3CqmKMepXSVdRn-124">
          <mxGeometry width="50" height="50" relative="1" as="geometry">
            <mxPoint x="240" y="2032" as="sourcePoint" />
            <mxPoint x="120" y="2240" as="targetPoint" />
          </mxGeometry>
        </mxCell>
        <mxCell id="9Wmfhl3CqmKMepXSVdRn-148" value="" style="endArrow=classic;html=1;rounded=0;fontSize=12;startSize=8;endSize=8;curved=1;entryX=0.5;entryY=0;entryDx=0;entryDy=0;" edge="1" parent="1" target="9Wmfhl3CqmKMepXSVdRn-125">
          <mxGeometry width="50" height="50" relative="1" as="geometry">
            <mxPoint x="242" y="2030" as="sourcePoint" />
            <mxPoint x="120" y="2240" as="targetPoint" />
          </mxGeometry>
        </mxCell>
        <mxCell id="9Wmfhl3CqmKMepXSVdRn-149" value="" style="endArrow=classic;html=1;rounded=0;fontSize=12;startSize=8;endSize=8;curved=1;entryX=0.5;entryY=0;entryDx=0;entryDy=0;" edge="1" parent="1" target="9Wmfhl3CqmKMepXSVdRn-126">
          <mxGeometry width="50" height="50" relative="1" as="geometry">
            <mxPoint x="-63" y="2030" as="sourcePoint" />
            <mxPoint x="-10" y="2130" as="targetPoint" />
          </mxGeometry>
        </mxCell>
        <mxCell id="9Wmfhl3CqmKMepXSVdRn-150" style="edgeStyle=none;curved=1;rounded=0;orthogonalLoop=1;jettySize=auto;html=1;exitX=0.5;exitY=1;exitDx=0;exitDy=0;entryX=0.511;entryY=0.092;entryDx=0;entryDy=0;entryPerimeter=0;fontSize=12;startSize=8;endSize=8;" edge="1" parent="1" source="9Wmfhl3CqmKMepXSVdRn-126" target="9Wmfhl3CqmKMepXSVdRn-128">
          <mxGeometry relative="1" as="geometry" />
        </mxCell>
        <mxCell id="9Wmfhl3CqmKMepXSVdRn-151" value="" style="endArrow=none;html=1;rounded=0;fontSize=12;startSize=8;endSize=8;curved=1;entryX=1;entryY=0.5;entryDx=0;entryDy=0;" edge="1" parent="1" target="9Wmfhl3CqmKMepXSVdRn-126">
          <mxGeometry width="50" height="50" relative="1" as="geometry">
            <mxPoint x="90" y="2100" as="sourcePoint" />
            <mxPoint x="50" y="2230" as="targetPoint" />
          </mxGeometry>
        </mxCell>
        <mxCell id="9Wmfhl3CqmKMepXSVdRn-155" value="" style="endArrow=none;html=1;rounded=0;fontSize=12;startSize=8;endSize=8;curved=1;entryX=0;entryY=0.5;entryDx=0;entryDy=0;" edge="1" parent="1" target="9Wmfhl3CqmKMepXSVdRn-126">
          <mxGeometry width="50" height="50" relative="1" as="geometry">
            <mxPoint x="-210" y="2100" as="sourcePoint" />
            <mxPoint x="-70" y="2210" as="targetPoint" />
          </mxGeometry>
        </mxCell>
        <mxCell id="9Wmfhl3CqmKMepXSVdRn-156" value="" style="endArrow=classic;html=1;rounded=0;fontSize=12;startSize=8;endSize=8;curved=1;" edge="1" parent="1" target="9Wmfhl3CqmKMepXSVdRn-129">
          <mxGeometry width="50" height="50" relative="1" as="geometry">
            <mxPoint x="-210" y="2100" as="sourcePoint" />
            <mxPoint x="-70" y="2210" as="targetPoint" />
          </mxGeometry>
        </mxCell>
        <mxCell id="9Wmfhl3CqmKMepXSVdRn-157" value="" style="endArrow=classic;html=1;rounded=0;fontSize=12;startSize=8;endSize=8;curved=1;entryX=0.5;entryY=0;entryDx=0;entryDy=0;" edge="1" parent="1" target="9Wmfhl3CqmKMepXSVdRn-127">
          <mxGeometry width="50" height="50" relative="1" as="geometry">
            <mxPoint x="87" y="2100" as="sourcePoint" />
            <mxPoint x="150" y="2200" as="targetPoint" />
          </mxGeometry>
        </mxCell>
        <mxCell id="9Wmfhl3CqmKMepXSVdRn-161" value="" style="endArrow=none;html=1;rounded=0;fontSize=12;startSize=8;endSize=8;curved=1;exitX=0.415;exitY=0.978;exitDx=0;exitDy=0;exitPerimeter=0;" edge="1" parent="1" source="9Wmfhl3CqmKMepXSVdRn-132">
          <mxGeometry width="50" height="50" relative="1" as="geometry">
            <mxPoint x="-10" y="2350" as="sourcePoint" />
            <mxPoint x="-223" y="2340" as="targetPoint" />
          </mxGeometry>
        </mxCell>
        <mxCell id="9Wmfhl3CqmKMepXSVdRn-163" value="" style="endArrow=none;html=1;rounded=0;fontSize=12;startSize=8;endSize=8;curved=1;exitX=0.415;exitY=0.978;exitDx=0;exitDy=0;exitPerimeter=0;" edge="1" parent="1">
          <mxGeometry width="50" height="50" relative="1" as="geometry">
            <mxPoint x="-65" y="2318" as="sourcePoint" />
            <mxPoint x="-65" y="2340" as="targetPoint" />
          </mxGeometry>
        </mxCell>
        <mxCell id="9Wmfhl3CqmKMepXSVdRn-164" value="" style="endArrow=none;html=1;rounded=0;fontSize=12;startSize=8;endSize=8;curved=1;exitX=0.415;exitY=0.978;exitDx=0;exitDy=0;exitPerimeter=0;" edge="1" parent="1">
          <mxGeometry width="50" height="50" relative="1" as="geometry">
            <mxPoint x="85" y="2320" as="sourcePoint" />
            <mxPoint x="85" y="2342" as="targetPoint" />
          </mxGeometry>
        </mxCell>
        <mxCell id="9Wmfhl3CqmKMepXSVdRn-165" value="" style="endArrow=none;html=1;rounded=0;fontSize=12;startSize=8;endSize=8;curved=1;" edge="1" parent="1">
          <mxGeometry width="50" height="50" relative="1" as="geometry">
            <mxPoint x="-220" y="2340" as="sourcePoint" />
            <mxPoint x="110" y="2340" as="targetPoint" />
          </mxGeometry>
        </mxCell>
        <mxCell id="9Wmfhl3CqmKMepXSVdRn-166" value="" style="endArrow=classic;html=1;rounded=0;fontSize=12;startSize=8;endSize=8;curved=1;entryX=0.479;entryY=-0.073;entryDx=0;entryDy=0;entryPerimeter=0;" edge="1" parent="1" target="9Wmfhl3CqmKMepXSVdRn-140">
          <mxGeometry width="50" height="50" relative="1" as="geometry">
            <mxPoint x="104" y="2340" as="sourcePoint" />
            <mxPoint x="120" y="2290" as="targetPoint" />
          </mxGeometry>
        </mxCell>
        <mxCell id="9Wmfhl3CqmKMepXSVdRn-167" value="" style="endArrow=none;html=1;rounded=0;fontSize=12;startSize=8;endSize=8;curved=1;entryX=0.5;entryY=1;entryDx=0;entryDy=0;" edge="1" parent="1" target="9Wmfhl3CqmKMepXSVdRn-134">
          <mxGeometry width="50" height="50" relative="1" as="geometry">
            <mxPoint x="242" y="2420" as="sourcePoint" />
            <mxPoint x="250" y="2410" as="targetPoint" />
          </mxGeometry>
        </mxCell>
        <mxCell id="9Wmfhl3CqmKMepXSVdRn-168" value="" style="endArrow=none;html=1;rounded=0;fontSize=12;startSize=8;endSize=8;curved=1;" edge="1" parent="1">
          <mxGeometry width="50" height="50" relative="1" as="geometry">
            <mxPoint x="103" y="2420" as="sourcePoint" />
            <mxPoint x="243" y="2420" as="targetPoint" />
          </mxGeometry>
        </mxCell>
        <mxCell id="9Wmfhl3CqmKMepXSVdRn-169" value="" style="endArrow=none;html=1;rounded=0;fontSize=12;startSize=8;endSize=8;curved=1;entryX=0.5;entryY=1;entryDx=0;entryDy=0;" edge="1" parent="1" target="9Wmfhl3CqmKMepXSVdRn-14">
          <mxGeometry width="50" height="50" relative="1" as="geometry">
            <mxPoint x="-35" y="1010" as="sourcePoint" />
            <mxPoint x="180" y="1080" as="targetPoint" />
          </mxGeometry>
        </mxCell>
        <mxCell id="9Wmfhl3CqmKMepXSVdRn-170" value="" style="endArrow=none;html=1;rounded=0;fontSize=12;startSize=8;endSize=8;curved=1;entryX=0.5;entryY=1;entryDx=0;entryDy=0;" edge="1" parent="1" target="9Wmfhl3CqmKMepXSVdRn-19">
          <mxGeometry width="50" height="50" relative="1" as="geometry">
            <mxPoint x="150" y="1430" as="sourcePoint" />
            <mxPoint x="130" y="1100" as="targetPoint" />
          </mxGeometry>
        </mxCell>
        <mxCell id="9Wmfhl3CqmKMepXSVdRn-171" value="" style="endArrow=none;html=1;rounded=0;fontSize=12;startSize=8;endSize=8;curved=1;" edge="1" parent="1">
          <mxGeometry width="50" height="50" relative="1" as="geometry">
            <mxPoint x="-40" y="1010" as="sourcePoint" />
            <mxPoint x="150" y="1010" as="targetPoint" />
          </mxGeometry>
        </mxCell>
        <mxCell id="9Wmfhl3CqmKMepXSVdRn-172" value="" style="endArrow=classic;html=1;rounded=0;fontSize=12;startSize=8;endSize=8;curved=1;" edge="1" parent="1">
          <mxGeometry width="50" height="50" relative="1" as="geometry">
            <mxPoint x="150" y="1430" as="sourcePoint" />
            <mxPoint x="230" y="1430" as="targetPoint" />
          </mxGeometry>
        </mxCell>
        <mxCell id="9Wmfhl3CqmKMepXSVdRn-173" value="" style="endArrow=none;html=1;rounded=0;fontSize=12;startSize=8;endSize=8;curved=1;exitX=0;exitY=0.5;exitDx=0;exitDy=0;" edge="1" parent="1" source="9Wmfhl3CqmKMepXSVdRn-57">
          <mxGeometry width="50" height="50" relative="1" as="geometry">
            <mxPoint x="-270" y="1700" as="sourcePoint" />
            <mxPoint x="-280" y="1730" as="targetPoint" />
          </mxGeometry>
        </mxCell>
        <mxCell id="9Wmfhl3CqmKMepXSVdRn-174" value="" style="endArrow=none;html=1;rounded=0;fontSize=12;startSize=8;endSize=8;curved=1;" edge="1" parent="1">
          <mxGeometry width="50" height="50" relative="1" as="geometry">
            <mxPoint x="-280" y="1730" as="sourcePoint" />
            <mxPoint x="-280" y="1520" as="targetPoint" />
          </mxGeometry>
        </mxCell>
        <mxCell id="9Wmfhl3CqmKMepXSVdRn-175" value="" style="endArrow=classic;html=1;rounded=0;fontSize=12;startSize=8;endSize=8;curved=1;entryX=0.5;entryY=0;entryDx=0;entryDy=0;" edge="1" parent="1" target="9Wmfhl3CqmKMepXSVdRn-34">
          <mxGeometry width="50" height="50" relative="1" as="geometry">
            <mxPoint x="-280" y="1522" as="sourcePoint" />
            <mxPoint x="-220" y="1650" as="targetPoint" />
          </mxGeometry>
        </mxCell>
        <mxCell id="9Wmfhl3CqmKMepXSVdRn-177" value="" style="endArrow=none;html=1;rounded=0;fontSize=12;startSize=8;endSize=8;curved=1;exitX=0;exitY=0.5;exitDx=0;exitDy=0;" edge="1" parent="1" source="9Wmfhl3CqmKMepXSVdRn-45">
          <mxGeometry width="50" height="50" relative="1" as="geometry">
            <mxPoint x="-550" y="1710" as="sourcePoint" />
            <mxPoint x="-750" y="1730" as="targetPoint" />
          </mxGeometry>
        </mxCell>
        <mxCell id="9Wmfhl3CqmKMepXSVdRn-178" value="" style="endArrow=none;html=1;rounded=0;fontSize=12;startSize=8;endSize=8;curved=1;" edge="1" parent="1">
          <mxGeometry width="50" height="50" relative="1" as="geometry">
            <mxPoint x="-750" y="1730" as="sourcePoint" />
            <mxPoint x="-750" y="1510" as="targetPoint" />
          </mxGeometry>
        </mxCell>
        <mxCell id="9Wmfhl3CqmKMepXSVdRn-179" value="" style="endArrow=classic;html=1;rounded=0;fontSize=12;startSize=8;endSize=8;curved=1;entryX=0.5;entryY=0;entryDx=0;entryDy=0;" edge="1" parent="1" target="9Wmfhl3CqmKMepXSVdRn-35">
          <mxGeometry width="50" height="50" relative="1" as="geometry">
            <mxPoint x="-750" y="1510" as="sourcePoint" />
            <mxPoint x="-500" y="1660" as="targetPoint" />
          </mxGeometry>
        </mxCell>
        <mxCell id="9Wmfhl3CqmKMepXSVdRn-181" value="True" style="text;html=1;align=center;verticalAlign=middle;resizable=0;points=[];autosize=1;strokeColor=none;fillColor=none;fontSize=16;" vertex="1" parent="1">
          <mxGeometry x="-36" y="771" width="60" height="30" as="geometry" />
        </mxCell>
        <mxCell id="9Wmfhl3CqmKMepXSVdRn-183" value="True" style="text;html=1;align=center;verticalAlign=middle;resizable=0;points=[];autosize=1;strokeColor=none;fillColor=none;fontSize=16;" vertex="1" parent="1">
          <mxGeometry x="134" y="701" width="60" height="30" as="geometry" />
        </mxCell>
        <mxCell id="9Wmfhl3CqmKMepXSVdRn-184" value="" style="endArrow=none;html=1;rounded=0;fontSize=12;startSize=8;endSize=8;curved=1;entryX=1;entryY=0.5;entryDx=0;entryDy=0;" edge="1" parent="1" target="9Wmfhl3CqmKMepXSVdRn-21">
          <mxGeometry width="50" height="50" relative="1" as="geometry">
            <mxPoint x="400" y="1010" as="sourcePoint" />
            <mxPoint x="330" y="1090" as="targetPoint" />
          </mxGeometry>
        </mxCell>
        <mxCell id="9Wmfhl3CqmKMepXSVdRn-185" value="" style="endArrow=none;html=1;rounded=0;fontSize=12;startSize=8;endSize=8;curved=1;" edge="1" parent="1">
          <mxGeometry width="50" height="50" relative="1" as="geometry">
            <mxPoint x="400" y="700" as="sourcePoint" />
            <mxPoint x="400" y="1010" as="targetPoint" />
          </mxGeometry>
        </mxCell>
        <mxCell id="9Wmfhl3CqmKMepXSVdRn-186" value="" style="endArrow=classic;html=1;rounded=0;fontSize=12;startSize=8;endSize=8;curved=1;" edge="1" parent="1">
          <mxGeometry width="50" height="50" relative="1" as="geometry">
            <mxPoint x="400" y="700" as="sourcePoint" />
            <mxPoint x="240" y="700" as="targetPoint" />
          </mxGeometry>
        </mxCell>
        <mxCell id="9Wmfhl3CqmKMepXSVdRn-187" value="True" style="text;html=1;align=center;verticalAlign=middle;resizable=0;points=[];autosize=1;strokeColor=none;fillColor=none;fontSize=16;" vertex="1" parent="1">
          <mxGeometry x="284" y="711" width="60" height="30" as="geometry" />
        </mxCell>
        <mxCell id="9Wmfhl3CqmKMepXSVdRn-188" value="" style="endArrow=classic;html=1;rounded=0;fontSize=12;startSize=8;endSize=8;curved=1;entryX=0;entryY=0.5;entryDx=0;entryDy=0;" edge="1" parent="1" target="9Wmfhl3CqmKMepXSVdRn-22">
          <mxGeometry width="50" height="50" relative="1" as="geometry">
            <mxPoint x="230" y="1110" as="sourcePoint" />
            <mxPoint x="330" y="940" as="targetPoint" />
          </mxGeometry>
        </mxCell>
        <mxCell id="9Wmfhl3CqmKMepXSVdRn-189" value="" style="endArrow=none;html=1;rounded=0;fontSize=12;startSize=8;endSize=8;curved=1;entryX=0.5;entryY=1;entryDx=0;entryDy=0;" edge="1" parent="1" target="9Wmfhl3CqmKMepXSVdRn-13">
          <mxGeometry width="50" height="50" relative="1" as="geometry">
            <mxPoint x="230" y="1110" as="sourcePoint" />
            <mxPoint x="330" y="940" as="targetPoint" />
          </mxGeometry>
        </mxCell>
        <mxCell id="9Wmfhl3CqmKMepXSVdRn-190" value="True" style="text;html=1;align=center;verticalAlign=middle;resizable=0;points=[];autosize=1;strokeColor=none;fillColor=none;fontSize=16;" vertex="1" parent="1">
          <mxGeometry x="314" y="1141" width="60" height="30" as="geometry" />
        </mxCell>
        <mxCell id="9Wmfhl3CqmKMepXSVdRn-191" value="" style="endArrow=none;html=1;rounded=0;fontSize=12;startSize=8;endSize=8;curved=1;entryX=1;entryY=0.5;entryDx=0;entryDy=0;" edge="1" parent="1" target="9Wmfhl3CqmKMepXSVdRn-24">
          <mxGeometry width="50" height="50" relative="1" as="geometry">
            <mxPoint x="410" y="1290" as="sourcePoint" />
            <mxPoint x="370" y="1350" as="targetPoint" />
          </mxGeometry>
        </mxCell>
        <mxCell id="9Wmfhl3CqmKMepXSVdRn-192" value="" style="endArrow=none;html=1;rounded=0;fontSize=12;startSize=8;endSize=8;curved=1;" edge="1" parent="1">
          <mxGeometry width="50" height="50" relative="1" as="geometry">
            <mxPoint x="410" y="1110" as="sourcePoint" />
            <mxPoint x="410" y="1290" as="targetPoint" />
          </mxGeometry>
        </mxCell>
        <mxCell id="9Wmfhl3CqmKMepXSVdRn-193" value="" style="endArrow=classic;html=1;rounded=0;fontSize=12;startSize=8;endSize=8;curved=1;entryX=1;entryY=0.5;entryDx=0;entryDy=0;" edge="1" parent="1" target="9Wmfhl3CqmKMepXSVdRn-22">
          <mxGeometry width="50" height="50" relative="1" as="geometry">
            <mxPoint x="410" y="1110" as="sourcePoint" />
            <mxPoint x="370" y="1350" as="targetPoint" />
          </mxGeometry>
        </mxCell>
        <mxCell id="9Wmfhl3CqmKMepXSVdRn-194" value="" style="endArrow=none;html=1;rounded=0;fontSize=12;startSize=8;endSize=8;curved=1;entryX=0.5;entryY=1;entryDx=0;entryDy=0;" edge="1" parent="1" target="9Wmfhl3CqmKMepXSVdRn-22">
          <mxGeometry width="50" height="50" relative="1" as="geometry">
            <mxPoint x="220" y="1150" as="sourcePoint" />
            <mxPoint x="370" y="1350" as="targetPoint" />
          </mxGeometry>
        </mxCell>
        <mxCell id="9Wmfhl3CqmKMepXSVdRn-195" value="" style="endArrow=none;html=1;rounded=0;fontSize=12;startSize=8;endSize=8;curved=1;" edge="1" parent="1">
          <mxGeometry width="50" height="50" relative="1" as="geometry">
            <mxPoint x="220" y="1350" as="sourcePoint" />
            <mxPoint x="220" y="1150" as="targetPoint" />
          </mxGeometry>
        </mxCell>
        <mxCell id="9Wmfhl3CqmKMepXSVdRn-196" value="" style="endArrow=classic;html=1;rounded=0;fontSize=12;startSize=8;endSize=8;curved=1;" edge="1" parent="1">
          <mxGeometry width="50" height="50" relative="1" as="geometry">
            <mxPoint x="220" y="1350" as="sourcePoint" />
            <mxPoint x="320" y="1350" as="targetPoint" />
          </mxGeometry>
        </mxCell>
        <mxCell id="9Wmfhl3CqmKMepXSVdRn-197" value="False" style="text;html=1;align=center;verticalAlign=middle;resizable=0;points=[];autosize=1;strokeColor=none;fillColor=none;fontSize=16;" vertex="1" parent="1">
          <mxGeometry x="214" y="1121" width="60" height="30" as="geometry" />
        </mxCell>
        <mxCell id="9Wmfhl3CqmKMepXSVdRn-199" value="True" style="text;html=1;align=center;verticalAlign=middle;resizable=0;points=[];autosize=1;strokeColor=none;fillColor=none;fontSize=16;" vertex="1" parent="1">
          <mxGeometry x="414" y="1511" width="60" height="30" as="geometry" />
        </mxCell>
      </root>
    </mxGraphModel>
  </diagram>
</mxfile>
